<?xml version="1.0" encoding="iso-8859-1"?>
<svg version="1.1"
	 xmlns="http://www.w3.org/2000/svg" xmlns:xlink="http://www.w3.org/1999/xlink"
	 x="0px"
	 y="0px"
	 viewBox="0 0 27 27"
	 style="enable-background:new 0 0 26.769 26.769;"
	 xml:space="preserve">
	<path fill="transparent"
		  stroke="#000"
		  stroke-width="0.7"
		  stroke-linecap="round"
		  d="M17.601,12.297c0.556-0.371,1.212-0.529,1.854-0.457l7.314-7.316l-4.096-4.096l-7.315,7.316
		c0.074,0.65-0.09,1.314-0.476,1.877L17.601,12.297z"/>
	<polygon fill="transparent"
			 stroke="#000"
			 stroke-width="0.7"
			 stroke-linecap="round"
			 points="4.842,21.207 4.577,20.942 3.19,22.063 0.854,25.744 1.452,26.342 5.136,24.006 6.256,22.623 5.99,22.354
		10.642,17.701 9.486,16.561 	"/>
	<path fill="transparent"
		  stroke="#000"
		  stroke-width="0.7"
		  stroke-linecap="round"
		  d="M11.204,8.307c0.537-1.92,0.05-4.066-1.457-5.576C8.245,1.235,6.124,0.744,4.215,1.262l3.233,3.232L6.6,7.66L3.43,8.508
		l-3.232-3.23c-0.516,1.908-0.026,4.029,1.473,5.529c1.571,1.572,3.835,2.033,5.815,1.389l0.018,0.018l13.299,13.299
		c0.526,0.525,1.216,0.791,1.905,0.791c0.69,0,1.378-0.266,1.906-0.791c1.051-1.049,1.051-2.754,0-3.811L11.204,8.307z
		 M22.94,25.061c-0.566,0-1.025-0.461-1.025-1.029c0-0.57,0.459-1.029,1.025-1.029c0.57,0,1.031,0.459,1.031,1.029
		C23.972,24.6,23.511,25.061,22.94,25.061z"/>
</svg>
