<?xml version="1.0" encoding="utf-8"?>
<!-- Generator: Adobe Illustrator 18.1.1, SVG Export Plug-In . SVG Version: 6.00 Build 0)  -->
<svg version="1.1" id="Слой_1" xmlns="http://www.w3.org/2000/svg" xmlns:xlink="http://www.w3.org/1999/xlink" x="0px" y="0px"
	 viewBox="0 0 121 130" enable-background="new 0 0 121 130" xml:space="preserve">
<g>
	<path fill="none" stroke="#CAE0EE" stroke-width="2" stroke-miterlimit="10" d="M104.8,70.9V54.3c0-3.8-3.6-6.9-8-6.9"/>
	<path fill="none" stroke="#CAE0EE" stroke-width="2" stroke-miterlimit="10" d="M13.2,58.5v-5c0-3.8,3.6-6.9,8-6.9"/>
	<path fill="none" stroke="#3B8BC0" stroke-width="2" stroke-miterlimit="10" d="M8.5,69c0,0,5,41,5.3,44.6s-0.6,5.5,6.9,6.1
		s76.7,0,80.1,0s5.4-1.1,6.5-6.9s5.3-33.8,5.3-36.8s-0.3-5.5-6.9-5.5S65,71.3,62.9,70.9c-2.1-0.4-7.1-10.3-8.4-11.8s-45.4,0-41.8,0
		S7.6,57.3,8.5,69z"/>
	<path fill="none" stroke="#86B8DD" stroke-width="2" stroke-miterlimit="10" d="M20.4,57.9V29.4c0-3.8,3.6-6.9,8-6.9"/>
	<circle fill="none" stroke="#3B8BC0" stroke-width="2" stroke-miterlimit="10" cx="62.9" cy="31.1" r="6.3"/>
	<path fill="none" stroke="#3B8BC0" stroke-width="2" stroke-linejoin="round" stroke-miterlimit="10" d="M50.4,47.3
		c0,0,12.5-14.5,25,1"/>
	<path fill="none" stroke="#3B8BC0" stroke-width="2" stroke-miterlimit="10" d="M28.4,59.1v-41c0-4.4,3.6-8,8-8h52.9
		c4.4,0,8,3.6,8,8v52.3"/>
</g>
</svg>
