<?xml version="1.0" encoding="utf-8"?>
<!-- Generator: Adobe Illustrator 18.1.1, SVG Export Plug-In . SVG Version: 6.00 Build 0)  -->
<svg version="1.1" id="Слой_1" xmlns="http://www.w3.org/2000/svg" xmlns:xlink="http://www.w3.org/1999/xlink" x="0px" y="0px"
	 viewBox="0 0 121 130" enable-background="new 0 0 121 130" xml:space="preserve">
<g>
	<path fill="none" stroke="#86B8DD" stroke-width="2" stroke-miterlimit="10" d="M101.8,41.8"/>
	<path fill="none" stroke="#86B8DD" stroke-width="2" stroke-miterlimit="10" d="M18.6,18.6c-3.9,0-7,3.1-7,7v87.7c0,3.9,3.1,7,7,7
		h76.2c3.9,0,7.8-3.7,7-8.2"/>
	<path fill="#FFFFFF" stroke="#86B8DD" stroke-width="2" stroke-miterlimit="10" d="M18.6,18.6"/>
	<path fill="none" stroke="#3B8BC0" stroke-width="2" stroke-miterlimit="10" d="M87.5,9.8H26.2c-3.9,0-7,3.1-7,7v87.7
		c0,3.9,3.1,7,7,7h76.2c3.9,0,7-3.1,7-7V33L87.5,9.8z"/>
	<path fill="none" stroke="#3B8BC0" stroke-width="2" stroke-miterlimit="10" d="M87.1,9.8c0,0,0,16.5,0,18.5s1.5,4.6,3.9,4.7
		c2.4,0.1,18.3,0,18.3,0"/>
	<circle fill="none" stroke="#3B8BC0" stroke-width="2" stroke-miterlimit="10" cx="41.3" cy="43.9" r="4.4"/>
	<circle fill="none" stroke="#3B8BC0" stroke-width="2" stroke-miterlimit="10" cx="41.3" cy="58.7" r="4.4"/>
	<circle fill="none" stroke="#3B8BC0" stroke-width="2" stroke-miterlimit="10" cx="41.3" cy="73.4" r="4.4"/>
	<line fill="none" stroke="#BBDAEC" stroke-width="2" stroke-miterlimit="10" x1="81" y1="43.9" x2="58.2" y2="43.9"/>
	<line fill="none" stroke="#BBDAEC" stroke-width="2" stroke-miterlimit="10" x1="81" y1="58.7" x2="58.2" y2="58.7"/>
	<polyline fill="none" stroke="#3B8BC0" stroke-width="2" stroke-miterlimit="10" points="60,81.6 70.9,93.9 97.3,69.4 	"/>
</g>
</svg>
