<?xml version="1.0" encoding="utf-8"?>
<!-- Generator: Adobe Illustrator 18.1.1, SVG Export Plug-In . SVG Version: 6.00 Build 0)  -->
<svg version="1.1" id="Слой_1" xmlns="http://www.w3.org/2000/svg" xmlns:xlink="http://www.w3.org/1999/xlink" x="0px" y="0px"
	 viewBox="0 0 121 130" enable-background="new 0 0 121 130" xml:space="preserve">
<g>
	<path fill="none" stroke="#BBDAEC" stroke-width="2" stroke-miterlimit="10" d="M101.7,120.4H19.3c-7.2,0-13-5.8-13-13V22.6
		c0-7.2,5.8-13,13-13h82.3c7.2,0,13,5.8,13,13v84.8C114.7,114.6,108.8,120.4,101.7,120.4z"/>
	<path fill="none" d="M75.1,98.1H46.2c-6.6,0-12-5.4-12-12V69.8c0-6.6,5.4-12,12-12h28.9c6.6,0,12,5.4,12,12v16.3
		C87.1,92.7,81.7,98.1,75.1,98.1z"/>
	<path fill="none" stroke="#3B8BC0" stroke-width="2" stroke-miterlimit="10" d="M100.2,113.7H20.8c-4.4,0-8-3.6-8-8V24.3
		c0-4.4,3.6-8,8-8h79.4c4.4,0,8,3.6,8,8v81.4C108.2,110.1,104.6,113.7,100.2,113.7z"/>
	<path fill="none" stroke="#A3CAE7" stroke-width="2" stroke-miterlimit="10" d="M66.8,75.3c0-3.5-2.8-6.4-6.4-6.4s-6.4,2.8-6.4,6.4
		c0,2.4,1.3,4.5,3.3,5.6c-0.1,0.2-0.1,0.5-0.1,0.7V84c0,1.7,1.4,3.1,3.1,3.1c1.7,0,3.1-1.4,3.1-3.1v-2.4c0-0.2,0-0.5-0.1-0.7
		C65.5,79.8,66.8,77.7,66.8,75.3z"/>
	<path fill="none" stroke="#3B8BC0" stroke-width="2" stroke-miterlimit="10" d="M48,58.3c0,0,0-12.2,0-16.6s14.3-17.5,24.6-1.1v5.2
		"/>
	<path fill="none" stroke="#3B8BC0" stroke-width="2" stroke-miterlimit="10" d="M78,97.5H43c-4.6,0-8.3-3.7-8.3-8.3V67
		c0-4.6,3.7-8.3,8.3-8.3h35c4.6,0,8.3,3.7,8.3,8.3v22.1C86.4,93.7,82.6,97.5,78,97.5z"/>
</g>
</svg>
