<?xml version="1.0" encoding="utf-8"?>
<!-- Generator: Adobe Illustrator 19.2.0, SVG Export Plug-In . SVG Version: 6.00 Build 0)  -->
<svg version="1.1" id="Layer_1" xmlns="http://www.w3.org/2000/svg" xmlns:xlink="http://www.w3.org/1999/xlink" x="0px" y="0px"
	 viewBox="0 0 200 200" style="enable-background:new 0 0 200 200;" xml:space="preserve">
<style type="text/css">
	.st0{fill:url(#SVGID_1_);}
	.st1{fill:#FFFFFF;}
</style>
<linearGradient id="SVGID_1_" gradientUnits="userSpaceOnUse" x1="100.0981" y1="10.8708" x2="100.0981" y2="189.3709">
	<stop  offset="0" style="stop-color:#DB6E07"/>
	<stop  offset="1" style="stop-color:#C64600"/>
</linearGradient>
<rect x="0.1" y="10.9" class="st0" width="200" height="178.5"/>
<g>
	<path class="st1" d="M40.3,72.9c0-0.6,0.2-1.1,1.1-1.1c0.8,0,9.4,0.3,15.2,0.3c12,0,14.8-1,16.9-1c1.1,0,1.4,0.9,1.4,1.4
		c0,0.5-0.5,1.6-0.5,3c0,1.4,0.3,2.9,0.3,4.2c0,1.2-1.1,1.7-1.6,1.7c-0.6,0-0.9-0.2-1-1.3c-0.1-2,1.4-5-13.1-5
		c-7.4,0-7.6,0.8-7.6,3.2c0,2.4,0.1,10.1,0.1,11.4c0,1.2,0.4,1.6,1.3,1.6c1,0,8.5,0,10.6,0c2.1,0,4.1-1.1,4.4-4
		c0.1-1.5,0.5-1.6,1.3-1.6c0.8,0,1.4,0.6,1.3,2.1c-0.1,1.4-0.4,3-0.4,5.1c0,2.1,0.4,4.1,0.4,5.6c0,1.5-2,1.9-2.4,0.2
		c-0.4-1.6-1-4.4-5.6-4.4c-4.6,0-8.4,0-9.4,0c-1,0-1.5,0.6-1.5,2.3c0,1.7,0,10,0,12c0,2.1,0.6,4.3,4.9,4.3c4.2,0,11.9,0.5,15.4-2.3
		c1.5-1.2,2-3,2.5-5.8c0.2-1.3,3-1.3,2.9,1.7c-0.1,1.4-1.4,4.4-1.4,6.3c0,1.6,0.4,3.7-1.1,3.7c-1.3,0-0.7-0.6-6.2-0.6
		c-5.5,0-24.5,0.1-27.6,0.1c-1.2,0-1.4-0.3-1.4-1.1c0-0.7,0.4-1.3,1.4-1.3c1,0,5.2,0.1,5.2-5.3c0-5.4,0-25,0-27.9s-0.6-5.8-4.2-6.2
		C40.3,74.2,40.3,73.6,40.3,72.9z"/>
	<path class="st1" d="M79.1,89.8c0-0.9,0.5-1.3,1.6-1.7c2.1-0.8,4.4-3.1,6.4-8.5c0.6-1.7,2.8-1.3,2.5,0.5c-0.3,1.8-0.7,5-0.7,6.8
		c0.9,0,7.9,0,8.8,0c0.9,0,1,1.1,1,1.9c0,0.8-0.2,1.5-1,1.5c-0.8,0-8.8,0-8.8,0s0,9.7,0,15.2c0,5.5,1.9,6.7,4.4,6.7
		c1.4,0,2.6-0.6,3.7-1.3c0.7-0.5,2.4,0.8,1.5,1.8c-0.8,1.1-3.7,4.2-7.8,4.2c-4.1,0-7.1-3-7-8.2C83.8,103.7,84,95.2,84,94
		s-1.5-2.8-3.3-2.8C79.3,91.1,79.1,90.4,79.1,89.8z"/>
	<path class="st1" d="M114.6,86.1c2.8,0,5,1,6,1s1.3-1.2,2.3-1.2c1,0,1.3,1.2,1,2.2c-0.3,1-0.5,3.4-0.3,6c0,0.9-0.7,1.4-1.4,1.4
		s-1-0.3-1.3-1.7c-0.3-1.4-1.5-4.7-6.4-4.7c-3.5,0-4.9,2.4-4.9,3.9c0,1.5,0.8,3,4.6,4.6c4,1.7,11.3,3.6,11.3,10.6
		c-0.2,6.6-6.8,8.7-10.6,8.7c-3.2,0-6.2-1-7.6-1c-1.3,0-1.8,1.1-2.7,1.1c-0.8,0-1.4-1-1.1-2c0.3-1,0.8-1.8,0.8-2.7s-0.6-3.3-0.2-5.3
		c0.3-1.9,2.9-2.2,2.9-0.3s0.8,7.2,7.6,7.2c5.5,0,6.1-3.8,6.1-4.9c0-1.3-0.3-3.2-6.8-5.8c-6.6-2.6-9.1-5-9.1-9.1
		C104.6,89.9,108.3,86.1,114.6,86.1z"/>
	<path class="st1" d="M127.3,87.8c0-0.6,0-0.9,0.8-0.9c0.7,0,4.6,0.1,6.6,0.1c2,0,5.7-0.1,6.5-0.1c0.5,0,0.4,0.7,0.4,1.1
		c0,0.5,0.1,1.2-0.9,1.2c-1,0-2.8,0.3-2.8,1.9c0,1.6,0.4,2,1.1,3.8c0.7,1.9,5.7,13.4,5.7,13.4s3.9-8.1,5.1-10.3
		c1.2-2.3,1.9-5.1,1.9-6.4c0-1.3-1.3-2.1-2.4-2.3c-1.1-0.2-1.6-0.2-1.6-1.4c0-0.7,0.1-1,0.7-1c0.5,0,3.8,0.2,6.2,0.2
		c2.4,0,5.2-0.2,6-0.2c0.7,0,0.5,0.6,0.5,1.1c0,0.5-0.1,1-0.7,1.1c-0.6,0.1-3.4,0-6.4,6.2c-2.9,6.2-8.7,18.7-12.9,26.9
		c-2.2,4.3-6.3,9-10.6,9c-2.2,0-3.1-1.9-3.1-2.9c0-1,0.5-2.5,3.1-2.5c1.7,0,2.1,0.8,3,0.8c1.7,0,6-4.1,7.2-11.5
		c0.2-1.7-1.6-5.8-2.2-7.7c-1-2.8-4.1-10.8-6.3-15.6c-0.8-1.6-2.7-2.5-4-2.6C127.4,89.1,127.3,88.8,127.3,87.8z"/>
</g>
</svg>
