<?xml version="1.0" encoding="UTF-8"?>
<!-- Generator: Adobe Illustrator 19.2.0, SVG Export Plug-In . SVG Version: 6.00 Build 0)  -->
<svg version="1.1" id="Layer_1" xmlns="http://www.w3.org/2000/svg" xmlns:xlink="http://www.w3.org/1999/xlink" x="0px" y="0px" viewBox="0 0 200 200" style="enable-background:new 0 0 200 200;" xml:space="preserve">
<style type="text/css">
	.st0{fill:#95BF47;}
	.st1{fill:#5E8E3E;}
	.st2{fill:#FFFFFF;}
</style>
<g>
	<path class="st0" d="M166,39c-0.1-1-1-1.6-1.7-1.6s-16.1-1.1-16.1-1.1s-10.6-10.6-11.9-11.8c-1.1-1.1-3.4-0.9-4.3-0.6   c-0.1,0-2.3,0.7-6,1.9c-3.6-10.5-9.9-19.9-20.9-19.9c-0.3,0-0.6,0-1,0c-3-4-7-5.9-10.3-5.9C68,0,55.6,32.3,51.8,48.6   c-10,3.2-17.2,5.3-18.1,5.6c-5.6,1.7-5.7,1.9-6.5,7.2C26.7,65.4,12,178.6,12,178.6L126,200l61.8-13.3C187.8,186.5,166.2,40,166,39z    M119.7,27.5c-2.9,0.9-6.2,1.9-9.6,3c0-0.7,0-1.3,0-2.2c0-6.3-0.9-11.5-2.3-15.6C113.5,13.6,117.3,20.1,119.7,27.5z M100.6,14.2   c1.6,4,2.6,9.6,2.6,17.3c0,0.4,0,0.7,0,1.1c-6.3,2-13,4-19.9,6.2C87.2,24.1,94.5,16.9,100.6,14.2z M93,6.9c1.1,0,2.3,0.4,3.3,1.1   C88,11.9,79.3,21.6,75.6,41.3c-5.4,1.7-10.8,3.3-15.8,4.9C64.1,31.3,74.6,6.9,93,6.9z"/>
	<path class="st1" d="M164.3,37.3c-0.7,0-16.1-1.1-16.1-1.1s-10.6-10.6-11.9-11.8c-0.4-0.4-1-0.7-1.6-0.7L126.2,200l61.8-13.3   c0,0-21.6-146.7-21.8-147.7C165.9,38,165,37.4,164.3,37.3z"/>
	<path class="st2" d="M105.1,71.4l-7.6,22.7c0,0-6.7-3.6-14.9-3.6c-12,0-12.6,7.6-12.6,9.5c0,10.3,27,14.3,27,38.6   c0,19.1-12,31.4-28.4,31.4c-19.6,0-29.5-12.2-29.5-12.2l5.3-17.3c0,0,10.3,8.9,18.9,8.9c5.7,0,8-4.4,8-7.7   c0-13.5-22.1-14.1-22.1-36.3c0-18.6,13.3-36.7,40.4-36.7C99.9,68.4,105.1,71.4,105.1,71.4z"/>
</g>
</svg>