<?xml version="1.0" encoding="UTF-8" standalone="no"?>
<svg xmlns:svg="http://www.w3.org/2000/svg"
     xmlns="http://www.w3.org/2000/svg"
     version="1.1"
     height="100%"
     viewBox="0 0 413 246">
    <g xmlns="http://www.w3.org/2000/svg" xmlns:inkscape="http://www.inkscape.org/namespaces/inkscape" inkscape:label="Layer 1" inkscape:groupmode="layer" id="layer1">
        <g id="g2988" transform="translate(-92.784497,-137.59576)">
            <path id="path2990" d="m 131.7,138.8 h 336.5 c 21.3,0 38.5,17.2 38.5,38.5 v 128.4 c 0,21.3 -17.2,38.5 -38.5,38.5 H 347.5 l 16.6,40.6 -72.8,-40.6 H 131.8 C 110.5,344.2 93.3,327 93.3,305.7 V 177.3 c -0.2,-21.1 17.1,-38.5 38.4,-38.5 z" inkscape:connector-curvature="0" style="fill:#9c5c8f"/>
            <path id="path2992" d="m 113.9,173.8 c 2.4,-3.2 5.9,-4.9 10.6,-5.2 8.6,-0.7 13.5,3.4 14.7,12.2 5.2,35.3 11,65.2 17.1,89.7 l 37,-70.5 c 3.4,-6.4 7.6,-9.8 12.7,-10.1 7.4,-0.5 12,4.2 13.9,14.2 4.2,22.5 9.6,41.6 16.1,57.8 4.4,-42.9 11.8,-73.9 22.3,-93 2.5,-4.7 6.3,-7.1 11.2,-7.4 3.9,-0.3 7.4,0.8 10.6,3.4 3.2,2.5 4.9,5.7 5.2,9.6 0.2,3 -0.3,5.6 -1.7,8.1 -6.6,12.2 -12,32.6 -16.4,61 -4.2,27.5 -5.7,49 -4.7,64.4 0.3,4.2 -0.3,7.9 -2,11.2 -2,3.7 -5.1,5.7 -9,6.1 -4.4,0.3 -9,-1.7 -13.4,-6.3 -15.7,-16.1 -28.2,-40.1 -37.4,-72 -11,21.6 -19.1,37.9 -24.3,48.7 -10,19.1 -18.4,28.9 -25.5,29.4 -4.6,0.3 -8.5,-3.5 -11.8,-11.7 -8.6,-22.1 -17.9,-64.9 -27.9,-128.3 -0.5,-4.4 0.4,-8.3 2.7,-11.3 z" inkscape:connector-curvature="0" style="fill:#ffffff"/>
            <path id="path2994" d="m 477.3,200.3 c -6.1,-10.6 -15,-17.1 -27,-19.6 -3.2,-0.7 -6.3,-1 -9.1,-1 -16.2,0 -29.4,8.5 -39.7,25.4 -8.8,14.4 -13.2,30.3 -13.2,47.7 0,13 2.7,24.2 8.1,33.5 6.1,10.6 15,17.1 27,19.6 3.2,0.7 6.3,1 9.1,1 16.4,0 29.6,-8.5 39.7,-25.4 8.8,-14.5 13.2,-30.4 13.2,-47.8 0,-13.3 -2.7,-24.3 -8.1,-33.4 l 0,0 z M 456,247.1 c -2.4,11.2 -6.6,19.4 -12.8,25 -4.9,4.4 -9.5,6.3 -13.7,5.4 -4.1,-0.8 -7.4,-4.4 -10,-11 -2,-5.2 -3,-10.5 -3,-15.4 0,-4.2 0.3,-8.5 1.2,-12.3 1.5,-6.9 4.4,-13.7 9,-20.1 5.6,-8.3 11.5,-11.7 17.6,-10.5 4.1,0.8 7.4,4.4 10,11 2,5.2 3,10.5 3,15.4 -0.1,4.4 -0.6,8.6 -1.3,12.5 l 0,0 z" inkscape:connector-curvature="0" style="fill:#ffffff"/>
            <path id="path2996" d="m 371.3,200.3 c -6.1,-10.6 -15.2,-17.1 -27,-19.6 -3.2,-0.7 -6.3,-1 -9.1,-1 -16.2,0 -29.4,8.5 -39.7,25.4 -8.8,14.4 -13.2,30.3 -13.2,47.7 0,13 2.7,24.2 8.1,33.5 6.1,10.6 15,17.1 27,19.6 3.2,0.7 6.3,1 9.1,1 16.4,0 29.6,-8.5 39.7,-25.4 8.8,-14.5 13.2,-30.4 13.2,-47.8 0,-13.3 -2.7,-24.3 -8.1,-33.4 l 0,0 z M 350,247.1 c -2.4,11.2 -6.6,19.4 -12.8,25 -4.9,4.4 -9.5,6.3 -13.7,5.4 -4.1,-0.8 -7.4,-4.4 -10,-11 -2,-5.2 -3,-10.5 -3,-15.4 0,-4.2 0.3,-8.5 1.2,-12.3 1.5,-6.9 4.4,-13.7 9,-20.1 5.6,-8.3 11.5,-11.7 17.6,-10.5 4.1,0.8 7.4,4.4 10,11 2,5.2 3,10.5 3,15.4 -0.1,4.4 -0.4,8.6 -1.3,12.5 l 0,0 z" inkscape:connector-curvature="0" style="fill:#ffffff"/>
        </g>
    </g>
</svg>
