<?xml version="1.0" encoding="iso-8859-1"?>
<!-- Generator: Adobe Illustrator 19.0.0, SVG Export Plug-In . SVG Version: 6.00 Build 0)  -->
<svg version="1.1" id="Layer_1" xmlns="http://www.w3.org/2000/svg" xmlns:xlink="http://www.w3.org/1999/xlink" x="0px" y="0px"
	 viewBox="0 0 410.8 410.8" style="enable-background:new 0 0 410.8 410.8;" xml:space="preserve">
<g>
	<g>
		<g>
			<path d="M333.4,138.8h-64c-4.4,0-8,3.6-8,8c0,4.4,3.6,8,8,8h64c13.2,0,24,10.8,24,24v192c0,13.2-10.8,24-24,24h-256
				c-13.2,0-24-10.8-24-24v-192c0-13.2,10.8-24,24-24h72c4.4,0,8-3.6,8-8c0-4.4-3.6-8-8-8h-72c-22,0-40,18-40,40v192
				c0,22,18,40,40,40h256c22,0,40-18,40-40v-192C373.4,156.8,355.4,138.8,333.4,138.8z"/>
			<path d="M205.4,246.8c-4.4,0-8,3.6-8,8v12c0,4.4,3.6,8,8,8c4.4,0,8-3.6,8-8v-12C213.4,250.4,209.8,246.8,205.4,246.8z"/>
			<path d="M140.2,84.4l57.2-57.2v191.6c0,4.4,3.6,8,8,8c4.4,0,8-3.6,8-8V27.2l57.2,57.2c1.6,1.6,3.6,2.4,5.6,2.4s4-0.8,5.6-2.4
				c3.2-3.2,3.2-8,0-11.2L211,2.4c-3.2-3.2-8-3.2-11.2,0L129,73.2c-3.2,3.2-3.2,8,0,11.2C132.2,87.6,137,87.6,140.2,84.4z"/>
		</g>
	</g>
</g>
</svg>
