<?xml version="1.0" encoding="iso-8859-1"?>
<!-- Generator: Adobe Illustrator 19.0.0, SVG Export Plug-In . SVG Version: 6.00 Build 0)  -->
<svg version="1.1" id="Layer_1" xmlns="http://www.w3.org/2000/svg" xmlns:xlink="http://www.w3.org/1999/xlink" x="0px" y="0px"
	 viewBox="0 0 412 412" style="enable-background:new 0 0 412 412;" xml:space="preserve">
<g>
	<g>
		<g>
			<path d="M334,140h-64c-4.4,0-8,3.6-8,8c0,4.4,3.6,8,8,8h64c13.2,0,24,10.8,24,24v192c0,13.2-10.8,24-24,24H78
				c-13.2,0-24-10.8-24-24V180c0-13.2,10.8-24,24-24h72c4.4,0,8-3.6,8-8c0-4.4-3.6-8-8-8H78c-22,0-40,18-40,40v192c0,22,18,40,40,40
				h256c22,0,40-18,40-40V180C374,158,356,140,334,140z"/>
			<path d="M206,28c4.4,0,8-3.6,8-8V8c0-4.4-3.6-8-8-8c-4.4,0-8,3.6-8,8v12C198,24.4,201.6,28,206,28z"/>
			<path d="M129.6,211.6c-3.2,3.2-3.2,8,0,11.2l70.8,70.8c1.6,1.6,3.6,2.4,5.6,2.4s4-0.8,5.6-2.4l70.8-70.8c3.2-3.2,3.2-8,0-11.2
				s-8-3.2-11.2,0L214,268.8V56c0-4.4-3.6-8-8-8c-4.4,0-8,3.6-8,8v212.8l-57.2-57.2C137.6,208.4,132.8,208.4,129.6,211.6z"/>
		</g>
	</g>
</g>
</svg>
