

<svg fill="#818181" version="1.1" xmlns="http://www.w3.org/2000/svg" xmlns:xlink="http://www.w3.org/1999/xlink" x="0px" y="0px" viewBox="0 0 1000 1000" enable-background="new 0 0 1000 1000" xml:space="preserve">
<g><g transform="translate(0.000000,511.000000) scale(0.100000,-0.100000)"><path fill="#818181" d="M2268.6,4973.8c-536.1-101.7-992.4-346.4-1388.3-739.5C140.8,3492.1-92.9,2447.4,264.5,1460.5c154-423.4,310.6-635,909.9-1242.6l547.1-549.8v277.7c0,346.4,63.2,714.8,175.9,1061.1l90.7,266.7L1826,1433c-519.6,511.3-533.3,1325-35.7,1847.4c417.9,437.1,1041.9,536.1,1580.7,247.4c255.7-134.7,1921.6-1789.6,2306.5-2290l121-156.7l-877-879.7C3929-791,4019.7-741.5,3931.8-348.4c-99,434.3,33,797.2,439.8,1231.6l233.7,247.4l-467.3,464.6l-464.6,464.6l-208.9-206.2c-285.9-280.4-461.8-516.8-602-811C2658.9,624.8,2615,429.6,2615-98.2c0-390.4,8.2-483.8,63.2-668c79.7-283.1,181.4-519.6,296.9-698.3c52.2-79.7,93.5-156.7,93.5-167.7s-494.8-514.1-1099.6-1118.9L869.3-3850.7l467.3-467.3l467.3-467.3L5850.6-736L9900,3310.6L9432.7,3778l-467.3,467.3L7860.2,3140.2L6752.3,2032.3l-44,68.7c-24.8,38.5-549.8,574.6-1162.9,1190.3c-1182.1,1190.4-1355.3,1336-1762.2,1509.2c-107.2,44-288.7,104.5-406.9,134.7C3096,5009.5,2554.5,5028.8,2268.6,4973.8z"/><path d="M8173.6-285.2l-459.1-459.1l195.2-192.4c387.6-379.4,511.3-662.5,486.6-1124.3c-11-225.4-27.5-288.7-112.7-467.3c-137.5-291.4-327.1-483.8-615.8-626.8c-208.9-104.5-250.2-112.7-497.6-126.4c-461.8-22-692.8,74.2-1077.6,450.9l-236.4,228.2l-464.6-464.6l-467.4-467.3l206.2-208.9c395.8-401.4,800-648.8,1278.3-786.3c299.7-85.2,1022.7-90.7,1319.6-11c962.2,258.4,1668.7,964.9,1927.1,1927.1c79.7,296.9,74.2,1019.9-11,1316.8c-77,263.9-211.7,563.6-351.9,778c-99,145.7-602.1,695.5-640.6,695.5C8643.7,176.7,8426.5-29.5,8173.6-285.2z"/></g></g>
</svg>